REM DIRINDEX 1\2\4\18,1\2\4\19,1\2\5\20,1\2\5\21,1\2\6\22,1\2\6\23,1\2\7\24,1\2\8\25,1\2\9\26,1\2\10\27,1\2\10\28,1\3\11\29,1\3\11\30,1\3\11\31,1\3\11\32,1\3\12\33,1\3\12\34,1\3\12\35,1\3\12\36,1\3\13\37,1\3\13\38,1\3\13\39,1\3\13\40,1\3\14\41,1\3\14\42,1\3\15\43,1\3\15\44,1\3\16\45,1\3\16\46,1\3\17\47,1\3\17\48,1\3\17\49,1\3\17\50
REM DIRNAME folder01,folder02,folder03,folder04,folder05,folder06,folder07,folder08,folder09,folder10,folder11,folder12,folder13,folder14,folder15,folder16,folder17,folder18,folder19,folder20,folder21,folder22,folder23,folder24,folder25,folder26,folder27,folder28,folder29,folder30,folder31,folder32,folder33,folder34,folder35,folder36,folder37,folder38,folder39,folder40,folder41,folder42,folder43,folder44,folder45,folder46,folder47,folder48,folder49,folder50
TITLE ""
FILE "01.mp3" MP3
  TRACK 01 AUDIO
    TITLE "0:"
    INDEX 01 00:00:00
  TRACK 02 AUDIO
    TITLE "29:cjc135_2554"
    INDEX 01 00:00:15
  TRACK 03 AUDIO
    TITLE "0:"
    INDEX 01 00:01:30
  TRACK 04 AUDIO
    TITLE "30:cjc135_2555"
    INDEX 01 00:02:04
  TRACK 05 AUDIO
    TITLE "0:"
    INDEX 01 00:03:47
  TRACK 06 AUDIO
    TITLE "31:cjc135_2556"
    INDEX 01 00:03:72
  TRACK 07 AUDIO
    TITLE "0:"
    INDEX 01 00:05:44
  TRACK 08 AUDIO
    TITLE "32:cjc135_2557"
    INDEX 01 00:05:73
  TRACK 09 AUDIO
    TITLE "0:"
    INDEX 01 00:07:43
  TRACK 10 AUDIO
    TITLE "29:cjc135_2558"
    INDEX 01 00:08:48
  TRACK 11 AUDIO
    TITLE "0:"
    INDEX 01 00:09:47
  TRACK 12 AUDIO
    TITLE "30:cjc135_2559"
    INDEX 01 00:10:21
  TRACK 13 AUDIO
    TITLE "0:"
    INDEX 01 00:12:69
  TRACK 14 AUDIO
    TITLE "31:cjc135_2560"
    INDEX 01 00:13:14
  TRACK 15 AUDIO
    TITLE "0:"
    INDEX 01 00:15:11
  TRACK 16 AUDIO
    TITLE "32:cjc135_2561"
    INDEX 01 00:15:34
  TRACK 17 AUDIO
    TITLE "0:"
    INDEX 01 00:17:33
  TRACK 18 AUDIO
    TITLE "29:cjc135_2562"
    INDEX 01 00:18:33
  TRACK 19 AUDIO
    TITLE "0:"
    INDEX 01 00:19:38
  TRACK 20 AUDIO
    TITLE "30:cjc135_2563"
    INDEX 01 00:20:14
  TRACK 21 AUDIO
    TITLE "0:"
    INDEX 01 00:21:68
  TRACK 22 AUDIO
    TITLE "31:cjc135_2564"
    INDEX 01 00:22:17
  TRACK 23 AUDIO
    TITLE "0:"
    INDEX 01 00:23:65
  TRACK 24 AUDIO
    TITLE "32:cjc135_2565"
    INDEX 01 00:24:14
  TRACK 25 AUDIO
    TITLE "0:"
    INDEX 01 00:25:62
  TRACK 26 AUDIO
    TITLE "29:cjc135_2566"
    INDEX 01 00:26:62
  TRACK 27 AUDIO
    TITLE "0:"
    INDEX 01 00:27:59
  TRACK 28 AUDIO
    TITLE "30:cjc135_2567"
    INDEX 01 00:28:37
  TRACK 29 AUDIO
    TITLE "0:"
    INDEX 01 00:31:35
  TRACK 30 AUDIO
    TITLE "31:cjc135_2568"
    INDEX 01 00:31:59
  TRACK 31 AUDIO
    TITLE "0:"
    INDEX 01 00:34:36
  TRACK 32 AUDIO
    TITLE "32:cjc135_2569"
    INDEX 01 00:34:63
  TRACK 33 AUDIO
    TITLE "0:"
    INDEX 01 00:37:38
  TRACK 34 AUDIO
    TITLE "29:cjc135_2570"
    INDEX 01 00:38:39
  TRACK 35 AUDIO
    TITLE "0:"
    INDEX 01 00:39:66
  TRACK 36 AUDIO
    TITLE "30:cjc135_2571"
    INDEX 01 00:40:42
  TRACK 37 AUDIO
    TITLE "0:"
    INDEX 01 00:42:57
  TRACK 38 AUDIO
    TITLE "31:cjc135_2572"
    INDEX 01 00:43:07
  TRACK 39 AUDIO
    TITLE "0:"
    INDEX 01 00:45:26
  TRACK 40 AUDIO
    TITLE "32:cjc135_2573"
    INDEX 01 00:45:49
  TRACK 41 AUDIO
    TITLE "0:"
    INDEX 01 00:47:68
  TRACK 42 AUDIO
    TITLE "29:cjc135_2574"
    INDEX 01 00:48:67
  TRACK 43 AUDIO
    TITLE "0:"
    INDEX 01 00:50:29
  TRACK 44 AUDIO
    TITLE "30:cjc135_2575"
    INDEX 01 00:51:01
  TRACK 45 AUDIO
    TITLE "0:"
    INDEX 01 00:52:47
  TRACK 46 AUDIO
    TITLE "31:cjc135_2576"
    INDEX 01 00:52:73
  TRACK 47 AUDIO
    TITLE "0:"
    INDEX 01 00:54:62
  TRACK 48 AUDIO
    TITLE "32:cjc135_2577"
    INDEX 01 00:55:12
  TRACK 49 AUDIO
    TITLE "0:"
    INDEX 01 00:57:03
  TRACK 50 AUDIO
    TITLE "29:cjc135_2578"
    INDEX 01 00:58:03
  TRACK 51 AUDIO
    TITLE "0:"
    INDEX 01 00:59:24
  TRACK 52 AUDIO
    TITLE "30:cjc135_2579"
    INDEX 01 00:59:73
  TRACK 53 AUDIO
    TITLE "0:"
    INDEX 01 01:01:44
  TRACK 54 AUDIO
    TITLE "31:cjc135_2580"
    INDEX 01 01:01:70
  TRACK 55 AUDIO
    TITLE "0:"
    INDEX 01 01:03:53
  TRACK 56 AUDIO
    TITLE "32:cjc135_2581"
    INDEX 01 01:04:07
  TRACK 57 AUDIO
    TITLE "0:"
    INDEX 01 01:05:66
  TRACK 58 AUDIO
    TITLE "29:cjc135_2582"
    INDEX 01 01:06:69
  TRACK 59 AUDIO
    TITLE "0:"
    INDEX 01 01:08:05
  TRACK 60 AUDIO
    TITLE "30:cjc135_2583"
    INDEX 01 01:08:54
  TRACK 61 AUDIO
    TITLE "0:"
    INDEX 01 01:11:35
  TRACK 62 AUDIO
    TITLE "31:cjc135_2584"
    INDEX 01 01:11:62
  TRACK 63 AUDIO
    TITLE "0:"
    INDEX 01 01:14:51
  TRACK 64 AUDIO
    TITLE "32:cjc135_2585"
    INDEX 01 01:14:74
  TRACK 65 AUDIO
    TITLE "0:"
    INDEX 01 01:17:63
  TRACK 66 AUDIO
    TITLE "29:cjc135_2586"
    INDEX 01 01:18:62
  TRACK 67 AUDIO
    TITLE "0:"
    INDEX 01 01:19:68
  TRACK 68 AUDIO
    TITLE "30:cjc135_2587"
    INDEX 01 01:20:44
  TRACK 69 AUDIO
    TITLE "0:"
    INDEX 01 01:22:35
  TRACK 70 AUDIO
    TITLE "31:cjc135_2588"
    INDEX 01 01:22:60
  TRACK 71 AUDIO
    TITLE "0:"
    INDEX 01 01:24:36
  TRACK 72 AUDIO
    TITLE "32:cjc135_2589"
    INDEX 01 01:24:65
  TRACK 73 AUDIO
    TITLE "0:"
    INDEX 01 01:26:42
  TRACK 74 AUDIO
    TITLE "29:cjc135_2590"
    INDEX 01 01:27:46
  TRACK 75 AUDIO
    TITLE "0:"
    INDEX 01 01:28:53
  TRACK 76 AUDIO
    TITLE "30:cjc135_2591"
    INDEX 01 01:29:27
  TRACK 77 AUDIO
    TITLE "0:"
    INDEX 01 01:31:18
  TRACK 78 AUDIO
    TITLE "31:cjc135_2592"
    INDEX 01 01:31:45
  TRACK 79 AUDIO
    TITLE "0:"
    INDEX 01 01:33:36
  TRACK 80 AUDIO
    TITLE "32:cjc135_2593"
    INDEX 01 01:33:62
  TRACK 81 AUDIO
    TITLE "0:"
    INDEX 01 01:35:53
  TRACK 82 AUDIO
    TITLE "29:cjc135_2594"
    INDEX 01 01:36:54
  TRACK 83 AUDIO
    TITLE "0:"
    INDEX 01 01:37:48
  TRACK 84 AUDIO
    TITLE "30:cjc135_2595"
    INDEX 01 01:38:20
  TRACK 85 AUDIO
    TITLE "0:"
    INDEX 01 01:40:68
  TRACK 86 AUDIO
    TITLE "31:cjc135_2596"
    INDEX 01 01:41:16
  TRACK 87 AUDIO
    TITLE "0:"
    INDEX 01 01:42:65
  TRACK 88 AUDIO
    TITLE "32:cjc135_2597"
    INDEX 01 01:43:15
  TRACK 89 AUDIO
    TITLE "0:"
    INDEX 01 01:44:62
  TRACK 90 AUDIO
    TITLE "29:cjc135_2598"
    INDEX 01 01:45:63
  TRACK 91 AUDIO
    TITLE "0:"
    INDEX 01 01:46:68
  TRACK 92 AUDIO
    TITLE "30:cjc135_2599"
    INDEX 01 01:47:44
  TRACK 93 AUDIO
    TITLE "0:"
    INDEX 01 01:50:41
  TRACK 94 AUDIO
    TITLE "31:cjc135_2600"
    INDEX 01 01:50:72
  TRACK 95 AUDIO
    TITLE "0:"
    INDEX 01 01:52:65
  TRACK 96 AUDIO
    TITLE "32:cjc135_2601"
    INDEX 01 01:53:21
  TRACK 97 AUDIO
    TITLE "0:"
    INDEX 01 01:55:15
  TRACK 98 AUDIO
    TITLE "29:cjc135_2602"
    INDEX 01 01:56:22
  TRACK 99 AUDIO
    TITLE "0:"
    INDEX 01 01:57:39
  TRACK 100 AUDIO
    TITLE "30:cjc135_2603"
    INDEX 01 01:58:15
  TRACK 101 AUDIO
    TITLE "0:"
    INDEX 01 02:00:65
  TRACK 102 AUDIO
    TITLE "31:cjc135_2604"
    INDEX 01 02:01:17
  TRACK 103 AUDIO
    TITLE "0:"
    INDEX 01 02:03:69
  TRACK 104 AUDIO
    TITLE "32:cjc135_2605"
    INDEX 01 02:04:17
  TRACK 105 AUDIO
    TITLE "0:"
    INDEX 01 02:06:69
  TRACK 106 AUDIO
    TITLE "29:cjc135_2606"
    INDEX 01 02:07:69
  TRACK 107 AUDIO
    TITLE "0:"
    INDEX 01 02:08:62
  TRACK 108 AUDIO
    TITLE "30:cjc135_2607"
    INDEX 01 02:09:36
  TRACK 109 AUDIO
    TITLE "0:"
    INDEX 01 02:11:41
  TRACK 110 AUDIO
    TITLE "31:cjc135_2608"
    INDEX 01 02:11:63
  TRACK 111 AUDIO
    TITLE "0:"
    INDEX 01 02:13:14
  TRACK 112 AUDIO
    TITLE "32:cjc135_2609"
    INDEX 01 02:13:38
  TRACK 113 AUDIO
    TITLE "0:"
    INDEX 01 02:14:65
  TRACK 114 AUDIO
    TITLE "29:cjc135_2610"
    INDEX 01 02:15:64
  TRACK 115 AUDIO
    TITLE "0:"
    INDEX 01 02:16:60
  TRACK 116 AUDIO
    TITLE "30:cjc135_2611"
    INDEX 01 02:17:34
  TRACK 117 AUDIO
    TITLE "0:"
    INDEX 01 02:19:39
  TRACK 118 AUDIO
    TITLE "31:cjc135_2612"
    INDEX 01 02:19:64
  TRACK 119 AUDIO
    TITLE "0:"
    INDEX 01 02:21:35
  TRACK 120 AUDIO
    TITLE "32:cjc135_2613"
    INDEX 01 02:21:59
  TRACK 121 AUDIO
    TITLE "0:"
    INDEX 01 02:23:30
  TRACK 122 AUDIO
    TITLE "29:cjc135_2614"
    INDEX 01 02:24:30
  TRACK 123 AUDIO
    TITLE "0:"
    INDEX 01 02:25:35
  TRACK 124 AUDIO
    TITLE "30:cjc135_2615"
    INDEX 01 02:26:13
  TRACK 125 AUDIO
    TITLE "0:"
    INDEX 01 02:28:39
  TRACK 126 AUDIO
    TITLE "31:cjc135_2616"
    INDEX 01 02:28:67
  TRACK 127 AUDIO
    TITLE "0:"
    INDEX 01 02:31:08
  TRACK 128 AUDIO
    TITLE "32:cjc135_2617"
    INDEX 01 02:31:36
  TRACK 129 AUDIO
    TITLE "0:"
    INDEX 01 02:33:56
  TRACK 130 AUDIO
    TITLE "29:cjc135_2618"
    INDEX 01 02:34:56
  TRACK 131 AUDIO
    TITLE "0:"
    INDEX 01 02:35:53
  TRACK 132 AUDIO
    TITLE "30:cjc135_2619"
    INDEX 01 02:36:31
  TRACK 133 AUDIO
    TITLE "0:"
    INDEX 01 02:38:14
  TRACK 134 AUDIO
    TITLE "31:cjc135_2620"
    INDEX 01 02:38:40
  TRACK 135 AUDIO
    TITLE "0:"
    INDEX 01 02:39:69
  TRACK 136 AUDIO
    TITLE "32:cjc135_2621"
    INDEX 01 02:40:19
  TRACK 137 AUDIO
    TITLE "0:"
    INDEX 01 02:41:50
  TRACK 138 AUDIO
    TITLE "29:cjc135_2622"
    INDEX 01 02:42:49
  TRACK 139 AUDIO
    TITLE "0:"
    INDEX 01 02:43:53
  TRACK 140 AUDIO
    TITLE "30:cjc135_2623"
    INDEX 01 02:44:27
  TRACK 141 AUDIO
    TITLE "0:"
    INDEX 01 02:47:45
  TRACK 142 AUDIO
    TITLE "31:cjc135_2624"
    INDEX 01 02:47:70
  TRACK 143 AUDIO
    TITLE "0:"
    INDEX 01 02:50:29
  TRACK 144 AUDIO
    TITLE "32:cjc135_2625"
    INDEX 01 02:50:53
  TRACK 145 AUDIO
    TITLE "0:"
    INDEX 01 02:53:12
  TRACK 146 AUDIO
    TITLE "29:cjc135_2626"
    INDEX 01 02:54:09
  TRACK 147 AUDIO
    TITLE "0:"
    INDEX 01 02:55:21
  TRACK 148 AUDIO
    TITLE "30:cjc135_2627"
    INDEX 01 02:56:02
  TRACK 149 AUDIO
    TITLE "0:"
    INDEX 01 02:58:23
  TRACK 150 AUDIO
    TITLE "31:cjc135_2628"
    INDEX 01 02:58:50
  TRACK 151 AUDIO
    TITLE "0:"
    INDEX 01 03:00:36
  TRACK 152 AUDIO
    TITLE "32:cjc135_2629"
    INDEX 01 03:00:61
  TRACK 153 AUDIO
    TITLE "0:"
    INDEX 01 03:02:44
  TRACK 154 AUDIO
    TITLE "29:cjc135_2630"
    INDEX 01 03:03:46
  TRACK 155 AUDIO
    TITLE "0:"
    INDEX 01 03:04:47
  TRACK 156 AUDIO
    TITLE "30:cjc135_2631"
    INDEX 01 03:05:23
  TRACK 157 AUDIO
    TITLE "0:"
    INDEX 01 03:08:17
  TRACK 158 AUDIO
    TITLE "31:cjc135_2632"
    INDEX 01 03:08:43
  TRACK 159 AUDIO
    TITLE "0:"
    INDEX 01 03:10:18
  TRACK 160 AUDIO
    TITLE "32:cjc135_2633"
    INDEX 01 03:10:42
  TRACK 161 AUDIO
    TITLE "0:"
    INDEX 01 03:12:17
  TRACK 162 AUDIO
    TITLE "29:cjc135_2634"
    INDEX 01 03:13:17
  TRACK 163 AUDIO
    TITLE "0:"
    INDEX 01 03:14:30
  TRACK 164 AUDIO
    TITLE "30:cjc135_2635"
    INDEX 01 03:15:04
  TRACK 165 AUDIO
    TITLE "0:"
    INDEX 01 03:18:08
  TRACK 166 AUDIO
    TITLE "31:cjc135_2636"
    INDEX 01 03:18:35
  TRACK 167 AUDIO
    TITLE "0:"
    INDEX 01 03:21:08
  TRACK 168 AUDIO
    TITLE "32:cjc135_2637"
    INDEX 01 03:21:34
  TRACK 169 AUDIO
    TITLE "0:"
    INDEX 01 03:24:09
  TRACK 170 AUDIO
    TITLE "29:cjc135_2638"
    INDEX 01 03:25:10
  TRACK 171 AUDIO
    TITLE "0:"
    INDEX 01 03:26:15
  TRACK 172 AUDIO
    TITLE "30:cjc135_2639"
    INDEX 01 03:26:64
  TRACK 173 AUDIO
    TITLE "0:"
    INDEX 01 03:28:42
  TRACK 174 AUDIO
    TITLE "31:cjc135_2640"
    INDEX 01 03:28:71
  TRACK 175 AUDIO
    TITLE "0:"
    INDEX 01 03:30:42
  TRACK 176 AUDIO
    TITLE "32:cjc135_2641"
    INDEX 01 03:30:64
  TRACK 177 AUDIO
    TITLE "0:"
    INDEX 01 03:32:36
  TRACK 178 AUDIO
    TITLE "29:cjc135_2642"
    INDEX 01 03:33:35
  TRACK 179 AUDIO
    TITLE "0:"
    INDEX 01 03:34:44
  TRACK 180 AUDIO
    TITLE "30:cjc135_2643"
    INDEX 01 03:35:20
  TRACK 181 AUDIO
    TITLE "0:"
    INDEX 01 03:37:60
  TRACK 182 AUDIO
    TITLE "31:cjc135_2644"
    INDEX 01 03:38:09
  TRACK 183 AUDIO
    TITLE "0:"
    INDEX 01 03:40:17
  TRACK 184 AUDIO
    TITLE "32:cjc135_2645"
    INDEX 01 03:40:43
  TRACK 185 AUDIO
    TITLE "0:"
    INDEX 01 03:42:48
  TRACK 186 AUDIO
    TITLE "29:cjc135_2646"
    INDEX 01 03:43:49
  TRACK 187 AUDIO
    TITLE "0:"
    INDEX 01 03:44:56
  TRACK 188 AUDIO
    TITLE "30:cjc135_2647"
    INDEX 01 03:45:32
  TRACK 189 AUDIO
    TITLE "0:"
    INDEX 01 03:47:02
  TRACK 190 AUDIO
    TITLE "31:cjc135_2648"
    INDEX 01 03:47:29
  TRACK 191 AUDIO
    TITLE "0:"
    INDEX 01 03:49:30
  TRACK 192 AUDIO
    TITLE "32:cjc135_2649"
    INDEX 01 03:49:56
  TRACK 193 AUDIO
    TITLE "0:"
    INDEX 01 03:51:54
  TRACK 194 AUDIO
    TITLE "29:cjc135_2650"
    INDEX 01 03:52:56
  TRACK 195 AUDIO
    TITLE "0:"
    INDEX 01 03:53:59
  TRACK 196 AUDIO
    TITLE "30:cjc135_2651"
    INDEX 01 03:54:35
  TRACK 197 AUDIO
    TITLE "0:"
    INDEX 01 03:57:08
  TRACK 198 AUDIO
    TITLE "31:cjc135_2652"
    INDEX 01 03:57:32
  TRACK 199 AUDIO
    TITLE "0:"
    INDEX 01 03:59:32
  TRACK 200 AUDIO
    TITLE "32:cjc135_2653"
    INDEX 01 03:59:58
  TRACK 201 AUDIO
    TITLE "0:"
    INDEX 01 04:01:59
  TRACK 202 AUDIO
    TITLE "29:cjc135_2654"
    INDEX 01 04:02:56
  TRACK 203 AUDIO
    TITLE "0:"
    INDEX 01 04:03:69
  TRACK 204 AUDIO
    TITLE "30:cjc135_2655"
    INDEX 01 04:04:41
  TRACK 205 AUDIO
    TITLE "0:"
    INDEX 01 04:06:48
  TRACK 206 AUDIO
    TITLE "31:cjc135_2656"
    INDEX 01 04:06:72
  TRACK 207 AUDIO
    TITLE "0:"
    INDEX 01 04:08:63
  TRACK 208 AUDIO
    TITLE "32:cjc135_2657"
    INDEX 01 04:09:11
  TRACK 209 AUDIO
    TITLE "0:"
    INDEX 01 04:11:02
  TRACK 210 AUDIO
    TITLE "29:cjc135_2658"
    INDEX 01 04:12:02
  TRACK 211 AUDIO
    TITLE "0:"
    INDEX 01 04:12:74
  TRACK 212 AUDIO
    TITLE "30:cjc135_2659"
    INDEX 01 04:13:52
  TRACK 213 AUDIO
    TITLE "0:"
    INDEX 01 04:17:11
  TRACK 214 AUDIO
    TITLE "31:cjc135_2660"
    INDEX 01 04:17:36
  TRACK 215 AUDIO
    TITLE "0:"
    INDEX 01 04:20:11
  TRACK 216 AUDIO
    TITLE "32:cjc135_2661"
    INDEX 01 04:20:40
  TRACK 217 AUDIO
    TITLE "0:"
    INDEX 01 04:23:15
  TRACK 218 AUDIO
    TITLE "29:cjc135_2662"
    INDEX 01 04:24:17
  TRACK 219 AUDIO
    TITLE "0:"
    INDEX 01 04:25:18
  TRACK 220 AUDIO
    TITLE "30:cjc135_2663"
    INDEX 01 04:25:67
  TRACK 221 AUDIO
    TITLE "0:"
    INDEX 01 04:28:14
  TRACK 222 AUDIO
    TITLE "31:cjc135_2664"
    INDEX 01 04:28:38
  TRACK 223 AUDIO
    TITLE "0:"
    INDEX 01 04:30:23
  TRACK 224 AUDIO
    TITLE "32:cjc135_2665"
    INDEX 01 04:30:49
  TRACK 225 AUDIO
    TITLE "0:"
    INDEX 01 04:32:38
  TRACK 226 AUDIO
    TITLE "29:cjc135_2666"
    INDEX 01 04:33:37
  TRACK 227 AUDIO
    TITLE "0:"
    INDEX 01 04:34:35
  TRACK 228 AUDIO
    TITLE "30:cjc135_2667"
    INDEX 01 04:35:13
  TRACK 229 AUDIO
    TITLE "0:"
    INDEX 01 04:38:11
  TRACK 230 AUDIO
    TITLE "31:cjc135_2668"
    INDEX 01 04:38:36
  TRACK 231 AUDIO
    TITLE "0:"
    INDEX 01 04:40:41
  TRACK 232 AUDIO
    TITLE "32:cjc135_2669"
    INDEX 01 04:40:67
  TRACK 233 AUDIO
    TITLE "0:"
    INDEX 01 04:42:71
  TRACK 234 AUDIO
    TITLE "29:cjc135_2670"
    INDEX 01 04:43:73
  TRACK 235 AUDIO
    TITLE "0:"
    INDEX 01 04:44:66
  TRACK 236 AUDIO
    TITLE "30:cjc135_2671"
    INDEX 01 04:45:40
  TRACK 237 AUDIO
    TITLE "0:"
    INDEX 01 04:47:41
  TRACK 238 AUDIO
    TITLE "31:cjc135_2672"
    INDEX 01 04:47:69
  TRACK 239 AUDIO
    TITLE "0:"
    INDEX 01 04:49:62
  TRACK 240 AUDIO
    TITLE "32:cjc135_2673"
    INDEX 01 04:50:10
  TRACK 241 AUDIO
    TITLE "0:"
    INDEX 01 04:52:03
  TRACK 242 AUDIO
    TITLE "29:cjc135_2674"
    INDEX 01 04:53:03
  TRACK 243 AUDIO
    TITLE "0:"
    INDEX 01 04:54:08
  TRACK 244 AUDIO
    TITLE "30:cjc135_2675"
    INDEX 01 04:54:57
  TRACK 245 AUDIO
    TITLE "0:"
    INDEX 01 04:57:02
  TRACK 246 AUDIO
    TITLE "31:cjc135_2676"
    INDEX 01 04:57:28
  TRACK 247 AUDIO
    TITLE "0:"
    INDEX 01 04:59:29
  TRACK 248 AUDIO
    TITLE "32:cjc135_2677"
    INDEX 01 04:59:54
  TRACK 249 AUDIO
    TITLE "0:"
    INDEX 01 05:01:57
  TRACK 250 AUDIO
    TITLE "29:cjc135_2678"
    INDEX 01 05:02:56
  TRACK 251 AUDIO
    TITLE "0:"
    INDEX 01 05:03:60
  TRACK 252 AUDIO
    TITLE "30:cjc135_2679"
    INDEX 01 05:04:32
  TRACK 253 AUDIO
    TITLE "0:"
    INDEX 01 05:07:42
  TRACK 254 AUDIO
    TITLE "31:cjc135_2680"
    INDEX 01 05:07:67
  TRACK 255 AUDIO
    TITLE "0:"
    INDEX 01 05:10:48
  TRACK 256 AUDIO
    TITLE "32:cjc135_2681"
    INDEX 01 05:10:72
  TRACK 257 AUDIO
    TITLE "0:"
    INDEX 01 05:13:50
  TRACK 258 AUDIO
    TITLE "29:cjc135_2682"
    INDEX 01 05:14:52
  TRACK 259 AUDIO
    TITLE "0:"
    INDEX 01 05:15:45
  TRACK 260 AUDIO
    TITLE "30:cjc135_2683"
    INDEX 01 05:16:19
  TRACK 261 AUDIO
    TITLE "0:"
    INDEX 01 05:18:54
  TRACK 262 AUDIO
    TITLE "31:cjc135_2684"
    INDEX 01 05:18:73
  TRACK 263 AUDIO
    TITLE "0:"
    INDEX 01 05:20:62
  TRACK 264 AUDIO
    TITLE "32:cjc135_2685"
    INDEX 01 05:21:09
  TRACK 265 AUDIO
    TITLE "0:"
    INDEX 01 05:23:00
  TRACK 266 AUDIO
    TITLE "29:cjc135_2686"
    INDEX 01 05:23:72
  TRACK 267 AUDIO
    TITLE "0:"
    INDEX 01 05:24:74
  TRACK 268 AUDIO
    TITLE "30:cjc135_2687"
    INDEX 01 05:25:44
  TRACK 269 AUDIO
    TITLE "0:"
    INDEX 01 05:27:68
  TRACK 270 AUDIO
    TITLE "31:cjc135_2688"
    INDEX 01 05:28:21
  TRACK 271 AUDIO
    TITLE "0:"
    INDEX 01 05:30:02
  TRACK 272 AUDIO
    TITLE "32:cjc135_2689"
    INDEX 01 05:30:21
  TRACK 273 AUDIO
    TITLE "0:"
    INDEX 01 05:32:05
  TRACK 274 AUDIO
    TITLE "29:cjc135_2690"
    INDEX 01 05:33:02
  TRACK 275 AUDIO
    TITLE "0:"
    INDEX 01 05:34:02
  TRACK 276 AUDIO
    TITLE "30:cjc135_2691"
    INDEX 01 05:34:53
  TRACK 277 AUDIO
    TITLE "0:"
    INDEX 01 05:36:38
  TRACK 278 AUDIO
    TITLE "31:cjc135_2692"
    INDEX 01 05:36:61
  TRACK 279 AUDIO
    TITLE "0:"
    INDEX 01 05:38:27
  TRACK 280 AUDIO
    TITLE "32:cjc135_2693"
    INDEX 01 05:38:52
  TRACK 281 AUDIO
    TITLE "0:"
    INDEX 01 05:40:18
  TRACK 282 AUDIO
    TITLE "29:cjc135_2694"
    INDEX 01 05:41:17
  TRACK 283 AUDIO
    TITLE "0:"
    INDEX 01 05:42:21
  TRACK 284 AUDIO
    TITLE "30:cjc135_2695"
    INDEX 01 05:42:70
  TRACK 285 AUDIO
    TITLE "0:"
    INDEX 01 05:45:23
  TRACK 286 AUDIO
    TITLE "31:cjc135_2696"
    INDEX 01 05:45:50
  TRACK 287 AUDIO
    TITLE "0:"
    INDEX 01 05:47:53
  TRACK 288 AUDIO
    TITLE "32:cjc135_2697"
    INDEX 01 05:48:06
  TRACK 289 AUDIO
    TITLE "0:"
    INDEX 01 05:50:08
  TRACK 290 AUDIO
    TITLE "29:cjc135_2698"
    INDEX 01 05:51:10
  TRACK 291 AUDIO
    TITLE "0:"
    INDEX 01 05:52:15
  TRACK 292 AUDIO
    TITLE "30:cjc135_2699"
    INDEX 01 05:52:62
  TRACK 293 AUDIO
    TITLE "0:"
    INDEX 01 05:55:29
  TRACK 294 AUDIO
    TITLE "31:cjc135_2700"
    INDEX 01 05:55:59
  TRACK 295 AUDIO
    TITLE "0:"
    INDEX 01 05:58:24
  TRACK 296 AUDIO
    TITLE "32:cjc135_2701"
    INDEX 01 05:58:55
  TRACK 297 AUDIO
    TITLE "0:"
    INDEX 01 06:01:24
  TRACK 298 AUDIO
    TITLE "29:cjc135_2702"
    INDEX 01 06:02:25
  TRACK 299 AUDIO
    TITLE "0:"
    INDEX 01 06:03:35
  TRACK 300 AUDIO
    TITLE "30:cjc135_2703"
    INDEX 01 06:04:11
  TRACK 301 AUDIO
    TITLE "0:"
    INDEX 01 06:07:30
  TRACK 302 AUDIO
    TITLE "31:cjc135_2704"
    INDEX 01 06:07:54
  TRACK 303 AUDIO
    TITLE "0:"
    INDEX 01 06:10:23
  TRACK 304 AUDIO
    TITLE "32:cjc135_2705"
    INDEX 01 06:10:50
  TRACK 305 AUDIO
    TITLE "0:"
    INDEX 01 06:13:21
  TRACK 306 AUDIO
    TITLE "29:cjc135_2706"
    INDEX 01 06:14:19
  TRACK 307 AUDIO
    TITLE "0:"
    INDEX 01 06:15:24
  TRACK 308 AUDIO
    TITLE "30:cjc135_2707"
    INDEX 01 06:16:04
  TRACK 309 AUDIO
    TITLE "0:"
    INDEX 01 06:18:66
  TRACK 310 AUDIO
    TITLE "31:cjc135_2708"
    INDEX 01 06:19:18
  TRACK 311 AUDIO
    TITLE "0:"
    INDEX 01 06:21:29
  TRACK 312 AUDIO
    TITLE "32:cjc135_2709"
    INDEX 01 06:21:54
  TRACK 313 AUDIO
    TITLE "0:"
    INDEX 01 06:23:69
  TRACK 314 AUDIO
    TITLE "29:cjc135_2710"
    INDEX 01 06:24:68
  TRACK 315 AUDIO
    TITLE "0:"
    INDEX 01 06:26:00
  TRACK 316 AUDIO
    TITLE "30:cjc135_2711"
    INDEX 01 06:26:49
  TRACK 317 AUDIO
    TITLE "0:"
    INDEX 01 06:28:56
  TRACK 318 AUDIO
    TITLE "31:cjc135_2712"
    INDEX 01 06:29:07
  TRACK 319 AUDIO
    TITLE "0:"
    INDEX 01 06:30:53
  TRACK 320 AUDIO
    TITLE "32:cjc135_2713"
    INDEX 01 06:31:09
  TRACK 321 AUDIO
    TITLE "0:"
    INDEX 01 06:32:56
  TRACK 322 AUDIO
    TITLE "29:cjc135_2714"
    INDEX 01 06:33:63
  TRACK 323 AUDIO
    TITLE "0:"
    INDEX 01 06:34:74
  TRACK 324 AUDIO
    TITLE "30:cjc135_2715"
    INDEX 01 06:35:46
  TRACK 325 AUDIO
    TITLE "0:"
    INDEX 01 06:37:35
  TRACK 326 AUDIO
    TITLE "31:cjc135_2716"
    INDEX 01 06:37:63
  TRACK 327 AUDIO
    TITLE "0:"
    INDEX 01 06:39:44
  TRACK 328 AUDIO
    TITLE "32:cjc135_2717"
    INDEX 01 06:39:70
  TRACK 329 AUDIO
    TITLE "0:"
    INDEX 01 06:41:53
  TRACK 330 AUDIO
    TITLE "29:cjc135_2718"
    INDEX 01 06:42:52
  TRACK 331 AUDIO
    TITLE "0:"
    INDEX 01 06:43:71
  TRACK 332 AUDIO
    TITLE "30:cjc135_2719"
    INDEX 01 06:44:45
  TRACK 333 AUDIO
    TITLE "0:"
    INDEX 01 06:47:42
  TRACK 334 AUDIO
    TITLE "31:cjc135_2720"
    INDEX 01 06:47:65
  TRACK 335 AUDIO
    TITLE "0:"
    INDEX 01 06:50:05
  TRACK 336 AUDIO
    TITLE "32:cjc135_2721"
    INDEX 01 06:50:26
  TRACK 337 AUDIO
    TITLE "0:"
    INDEX 01 06:52:41
  TRACK 338 AUDIO
    TITLE "29:cjc135_2722"
    INDEX 01 06:53:40
  TRACK 339 AUDIO
    TITLE "0:"
    INDEX 01 06:54:38
  TRACK 340 AUDIO
    TITLE "30:cjc135_2723"
    INDEX 01 06:55:12
  TRACK 341 AUDIO
    TITLE "0:"
    INDEX 01 06:57:42
  TRACK 342 AUDIO
    TITLE "31:cjc135_2724"
    INDEX 01 06:57:68
  TRACK 343 AUDIO
    TITLE "0:"
    INDEX 01 07:00:29
  TRACK 344 AUDIO
    TITLE "32:cjc135_2725"
    INDEX 01 07:00:54
  TRACK 345 AUDIO
    TITLE "0:"
    INDEX 01 07:03:17
  TRACK 346 AUDIO
    TITLE "29:cjc135_2726"
    INDEX 01 07:04:21
  TRACK 347 AUDIO
    TITLE "0:"
    INDEX 01 07:05:32
  TRACK 348 AUDIO
    TITLE "30:cjc135_2727"
    INDEX 01 07:06:06
  TRACK 349 AUDIO
    TITLE "0:"
    INDEX 01 07:07:33
  TRACK 350 AUDIO
    TITLE "31:cjc135_2728"
    INDEX 01 07:07:66
  TRACK 351 AUDIO
    TITLE "0:"
    INDEX 01 07:09:20
  TRACK 352 AUDIO
    TITLE "32:cjc135_2729"
    INDEX 01 07:09:49
  TRACK 353 AUDIO
    TITLE "0:"
    INDEX 01 07:11:05
  TRACK 354 AUDIO
    TITLE "29:cjc135_2730"
    INDEX 01 07:12:04
  TRACK 355 AUDIO
    TITLE "0:"
    INDEX 01 07:13:23
  TRACK 356 AUDIO
    TITLE "30:cjc135_2731"
    INDEX 01 07:13:74
  TRACK 357 AUDIO
    TITLE "0:"
    INDEX 01 07:16:30
  TRACK 358 AUDIO
    TITLE "31:cjc135_2732"
    INDEX 01 07:16:55
  TRACK 359 AUDIO
    TITLE "0:"
    INDEX 01 07:18:60
  TRACK 360 AUDIO
    TITLE "32:cjc135_2733"
    INDEX 01 07:19:10
  TRACK 361 AUDIO
    TITLE "0:"
    INDEX 01 07:21:15
  TRACK 362 AUDIO
    TITLE "29:cjc135_2734"
    INDEX 01 07:22:15
  TRACK 363 AUDIO
    TITLE "0:"
    INDEX 01 07:23:14
  TRACK 364 AUDIO
    TITLE "30:cjc135_2735"
    INDEX 01 07:23:65
  TRACK 365 AUDIO
    TITLE "0:"
    INDEX 01 07:26:26
  TRACK 366 AUDIO
    TITLE "31:cjc135_2736"
    INDEX 01 07:26:52
  TRACK 367 AUDIO
    TITLE "0:"
    INDEX 01 07:28:72
  TRACK 368 AUDIO
    TITLE "32:cjc135_2737"
    INDEX 01 07:29:21
  TRACK 369 AUDIO
    TITLE "0:"
    INDEX 01 07:31:39
  TRACK 370 AUDIO
    TITLE "29:cjc135_2738"
    INDEX 01 07:32:38
  TRACK 371 AUDIO
    TITLE "0:"
    INDEX 01 07:33:38
  TRACK 372 AUDIO
    TITLE "30:cjc135_2739"
    INDEX 01 07:34:16
  TRACK 373 AUDIO
    TITLE "0:"
    INDEX 01 07:38:51
  TRACK 374 AUDIO
    TITLE "31:cjc135_2740"
    INDEX 01 07:38:74
  TRACK 375 AUDIO
    TITLE "0:"
    INDEX 01 07:41:65
  TRACK 376 AUDIO
    TITLE "32:cjc135_2741"
    INDEX 01 07:42:17
  TRACK 377 AUDIO
    TITLE "0:"
    INDEX 01 07:45:08
  TRACK 378 AUDIO
    TITLE "29:cjc135_2742"
    INDEX 01 07:46:09
  TRACK 379 AUDIO
    TITLE "0:"
    INDEX 01 07:47:11
  TRACK 380 AUDIO
    TITLE "30:cjc135_2743"
    INDEX 01 07:47:62
  TRACK 381 AUDIO
    TITLE "0:"
    INDEX 01 07:50:30
  TRACK 382 AUDIO
    TITLE "31:cjc135_2744"
    INDEX 01 07:50:54
  TRACK 383 AUDIO
    TITLE "0:"
    INDEX 01 07:52:63
  TRACK 384 AUDIO
    TITLE "32:cjc135_2745"
    INDEX 01 07:53:11
  TRACK 385 AUDIO
    TITLE "0:"
    INDEX 01 07:55:20
  TRACK 386 AUDIO
    TITLE "29:cjc135_2746"
    INDEX 01 07:56:19
  TRACK 387 AUDIO
    TITLE "0:"
    INDEX 01 07:57:17
  TRACK 388 AUDIO
    TITLE "30:cjc135_2747"
    INDEX 01 07:57:70
  TRACK 389 AUDIO
    TITLE "0:"
    INDEX 01 08:00:21
  TRACK 390 AUDIO
    TITLE "31:cjc135_2748"
    INDEX 01 08:00:45
  TRACK 391 AUDIO
    TITLE "0:"
    INDEX 01 08:02:47
  TRACK 392 AUDIO
    TITLE "32:cjc135_2749"
    INDEX 01 08:03:00
  TRACK 393 AUDIO
    TITLE "0:"
    INDEX 01 08:05:03
  TRACK 394 AUDIO
    TITLE "29:cjc135_2750"
    INDEX 01 08:06:04
  TRACK 395 AUDIO
    TITLE "0:"
    INDEX 01 08:07:11
  TRACK 396 AUDIO
    TITLE "30:cjc135_2751"
    INDEX 01 08:07:60
  TRACK 397 AUDIO
    TITLE "0:"
    INDEX 01 08:11:09
  TRACK 398 AUDIO
    TITLE "31:cjc135_2752"
    INDEX 01 08:11:33
  TRACK 399 AUDIO
    TITLE "0:"
    INDEX 01 08:15:03
  TRACK 400 AUDIO
    TITLE "32:cjc135_2753"
    INDEX 01 08:15:27
  TRACK 401 AUDIO
    TITLE "0:"
    INDEX 01 08:18:72
  TRACK 402 AUDIO
    TITLE "29:cjc135_2754"
    INDEX 01 08:19:69
  TRACK 403 AUDIO
    TITLE "0:"
    INDEX 01 08:21:00
  TRACK 404 AUDIO
    TITLE "30:cjc135_2755"
    INDEX 01 08:21:53
  TRACK 405 AUDIO
    TITLE "0:"
    INDEX 01 08:24:65
  TRACK 406 AUDIO
    TITLE "31:cjc135_2756"
    INDEX 01 08:25:15
  TRACK 407 AUDIO
    TITLE "0:"
    INDEX 01 08:27:63
  TRACK 408 AUDIO
    TITLE "32:cjc135_2757"
    INDEX 01 08:28:12
  TRACK 409 AUDIO
    TITLE "0:"
    INDEX 01 08:30:59
  TRACK 410 AUDIO
    TITLE "29:cjc135_2758"
    INDEX 01 08:31:61
  TRACK 411 AUDIO
    TITLE "0:"
    INDEX 01 08:32:66
  TRACK 412 AUDIO
    TITLE "30:cjc135_2759"
    INDEX 01 08:33:44
  TRACK 413 AUDIO
    TITLE "0:"
    INDEX 01 08:36:17
  TRACK 414 AUDIO
    TITLE "31:cjc135_2760"
    INDEX 01 08:36:42
  TRACK 415 AUDIO
    TITLE "0:"
    INDEX 01 08:38:51
  TRACK 416 AUDIO
    TITLE "32:cjc135_2761"
    INDEX 01 08:38:73
  TRACK 417 AUDIO
    TITLE "0:"
    INDEX 01 08:41:02
  TRACK 418 AUDIO
    TITLE "29:cjc135_2762"
    INDEX 01 08:42:04
  TRACK 419 AUDIO
    TITLE "0:"
    INDEX 01 08:42:74
  TRACK 420 AUDIO
    TITLE "30:cjc135_2763"
    INDEX 01 08:43:50
  TRACK 421 AUDIO
    TITLE "0:"
    INDEX 01 08:47:17
  TRACK 422 AUDIO
    TITLE "31:cjc135_2764"
    INDEX 01 08:47:42
  TRACK 423 AUDIO
    TITLE "0:"
    INDEX 01 08:49:59
  TRACK 424 AUDIO
    TITLE "32:cjc135_2765"
    INDEX 01 08:50:07
  TRACK 425 AUDIO
    TITLE "0:"
    INDEX 01 08:52:24
  TRACK 426 AUDIO
    TITLE "29:cjc135_2766"
    INDEX 01 08:53:21
  TRACK 427 AUDIO
    TITLE "0:"
    INDEX 01 08:54:17
  TRACK 428 AUDIO
    TITLE "30:cjc135_2767"
    INDEX 01 08:54:70
  TRACK 429 AUDIO
    TITLE "0:"
    INDEX 01 08:56:41
  TRACK 430 AUDIO
    TITLE "31:cjc135_2768"
    INDEX 01 08:56:67
  TRACK 431 AUDIO
    TITLE "0:"
    INDEX 01 08:58:24
  TRACK 432 AUDIO
    TITLE "32:cjc135_2769"
    INDEX 01 08:58:50
  TRACK 433 AUDIO
    TITLE "0:"
    INDEX 01 09:00:06
  TRACK 434 AUDIO
    TITLE "29:cjc135_2770"
    INDEX 01 09:01:07
  TRACK 435 AUDIO
    TITLE "0:"
    INDEX 01 09:02:32
  TRACK 436 AUDIO
    TITLE "30:cjc135_2771"
    INDEX 01 09:03:04
  TRACK 437 AUDIO
    TITLE "0:"
    INDEX 01 09:06:47
  TRACK 438 AUDIO
    TITLE "31:cjc135_2772"
    INDEX 01 09:06:73
  TRACK 439 AUDIO
    TITLE "0:"
    INDEX 01 09:09:50
  TRACK 440 AUDIO
    TITLE "32:cjc135_2773"
    INDEX 01 09:10:00
  TRACK 441 AUDIO
    TITLE "0:"
    INDEX 01 09:12:50
  TRACK 442 AUDIO
    TITLE "29:cjc135_2774"
    INDEX 01 09:13:51
  TRACK 443 AUDIO
    TITLE "0:"
    INDEX 01 09:14:53
  TRACK 444 AUDIO
    TITLE "30:cjc135_2775"
    INDEX 01 09:15:27
  TRACK 445 AUDIO
    TITLE "0:"
    INDEX 01 09:17:26
  TRACK 446 AUDIO
    TITLE "31:cjc135_2776"
    INDEX 01 09:17:53
  TRACK 447 AUDIO
    TITLE "0:"
    INDEX 01 09:19:09
  TRACK 448 AUDIO
    TITLE "32:cjc135_2777"
    INDEX 01 09:19:34
  TRACK 449 AUDIO
    TITLE "0:"
    INDEX 01 09:20:65
  TRACK 450 AUDIO
    TITLE "29:cjc135_2778"
    INDEX 01 09:21:67
  TRACK 451 AUDIO
    TITLE "0:"
    INDEX 01 09:22:68
  TRACK 452 AUDIO
    TITLE "30:cjc135_2779"
    INDEX 01 09:23:44
  TRACK 453 AUDIO
    TITLE "0:"
    INDEX 01 09:25:06
  TRACK 454 AUDIO
    TITLE "31:cjc135_2780"
    INDEX 01 09:25:33
  TRACK 455 AUDIO
    TITLE "0:"
    INDEX 01 09:26:56
  TRACK 456 AUDIO
    TITLE "32:cjc135_2781"
    INDEX 01 09:27:06
  TRACK 457 AUDIO
    TITLE "0:"
    INDEX 01 09:28:29
  TRACK 458 AUDIO
    TITLE "29:cjc135_2782"
    INDEX 01 09:29:33
  TRACK 459 AUDIO
    TITLE "0:"
    INDEX 01 09:30:30
  TRACK 460 AUDIO
    TITLE "30:cjc135_2783"
    INDEX 01 09:31:04
  TRACK 461 AUDIO
    TITLE "0:"
    INDEX 01 09:34:48
  TRACK 462 AUDIO
    TITLE "31:cjc135_2784"
    INDEX 01 09:34:73
  TRACK 463 AUDIO
    TITLE "0:"
    INDEX 01 09:37:62
  TRACK 464 AUDIO
    TITLE "32:cjc135_2785"
    INDEX 01 09:38:14
  TRACK 465 AUDIO
    TITLE "0:"
    INDEX 01 09:41:05
  TRACK 466 AUDIO
    TITLE "29:cjc135_2786"
    INDEX 01 09:42:08
  TRACK 467 AUDIO
    TITLE "0:"
    INDEX 01 09:42:73
  TRACK 468 AUDIO
    TITLE "30:cjc135_2787"
    INDEX 01 09:43:47
  TRACK 469 AUDIO
    TITLE "0:"
    INDEX 01 09:45:20
  TRACK 470 AUDIO
    TITLE "31:cjc135_2788"
    INDEX 01 09:45:45
  TRACK 471 AUDIO
    TITLE "0:"
    INDEX 01 09:46:72
  TRACK 472 AUDIO
    TITLE "32:cjc135_2789"
    INDEX 01 09:47:23
  TRACK 473 AUDIO
    TITLE "0:"
    INDEX 01 09:48:50
  TRACK 474 AUDIO
    TITLE "29:cjc135_2790"
    INDEX 01 09:49:49
  TRACK 475 AUDIO
    TITLE "0:"
    INDEX 01 09:50:49
  TRACK 476 AUDIO
    TITLE "30:cjc135_2791"
    INDEX 01 09:51:25
  TRACK 477 AUDIO
    TITLE "0:"
    INDEX 01 09:52:71
  TRACK 478 AUDIO
    TITLE "31:cjc135_2792"
    INDEX 01 09:53:20
  TRACK 479 AUDIO
    TITLE "0:"
    INDEX 01 09:54:42
  TRACK 480 AUDIO
    TITLE "32:cjc135_2793"
    INDEX 01 09:54:68
  TRACK 481 AUDIO
    TITLE "0:"
    INDEX 01 09:56:14
  TRACK 482 AUDIO
    TITLE "29:cjc135_2794"
    INDEX 01 09:57:15
  TRACK 483 AUDIO
    TITLE "0:"
    INDEX 01 09:58:25
  TRACK 484 AUDIO
    TITLE "30:cjc135_2795"
    INDEX 01 09:59:03
  TRACK 485 AUDIO
    TITLE "0:"
    INDEX 01 10:01:66
  TRACK 486 AUDIO
    TITLE "31:cjc135_2796"
    INDEX 01 10:02:17
  TRACK 487 AUDIO
    TITLE "0:"
    INDEX 01 10:04:39
  TRACK 488 AUDIO
    TITLE "32:cjc135_2797"
    INDEX 01 10:04:64
  TRACK 489 AUDIO
    TITLE "0:"
    INDEX 01 10:07:12
  TRACK 490 AUDIO
    TITLE "29:cjc135_2798"
    INDEX 01 10:08:11
  TRACK 491 AUDIO
    TITLE "0:"
    INDEX 01 10:09:11
  TRACK 492 AUDIO
    TITLE "30:cjc135_2799"
    INDEX 01 10:09:62
  TRACK 493 AUDIO
    TITLE "0:"
    INDEX 01 10:12:38
  TRACK 494 AUDIO
    TITLE "31:cjc135_2800"
    INDEX 01 10:12:62
  TRACK 495 AUDIO
    TITLE "0:"
    INDEX 01 10:14:41
  TRACK 496 AUDIO
    TITLE "32:cjc135_2801"
    INDEX 01 10:14:65
  TRACK 497 AUDIO
    TITLE "0:"
    INDEX 01 10:16:42
  TRACK 498 AUDIO
    TITLE "29:cjc135_2802"
    INDEX 01 10:17:42
  TRACK 499 AUDIO
    TITLE "0:"
    INDEX 01 10:18:53
  TRACK 500 AUDIO
    TITLE "30:cjc135_2803"
    INDEX 01 10:19:29
  TRACK 501 AUDIO
    TITLE "0:"
    INDEX 01 10:22:06
  TRACK 502 AUDIO
    TITLE "31:cjc135_2804"
    INDEX 01 10:22:29
  TRACK 503 AUDIO
    TITLE "0:"
    INDEX 01 10:25:02
  TRACK 504 AUDIO
    TITLE "32:cjc135_2805"
    INDEX 01 10:25:27
  TRACK 505 AUDIO
    TITLE "0:"
    INDEX 01 10:28:02
  TRACK 506 AUDIO
    TITLE "29:cjc135_2806"
    INDEX 01 10:29:00
  TRACK 507 AUDIO
    TITLE "0:"
    INDEX 01 10:29:74
  TRACK 508 AUDIO
    TITLE "30:cjc135_2807"
    INDEX 01 10:30:50
  TRACK 509 AUDIO
    TITLE "0:"
    INDEX 01 10:32:08
  TRACK 510 AUDIO
    TITLE "31:cjc135_2808"
    INDEX 01 10:32:31
  TRACK 511 AUDIO
    TITLE "0:"
    INDEX 01 10:33:68
  TRACK 512 AUDIO
    TITLE "32:cjc135_2809"
    INDEX 01 10:34:20
  TRACK 513 AUDIO
    TITLE "0:"
    INDEX 01 10:35:57
  TRACK 514 AUDIO
    TITLE "29:cjc135_2810"
    INDEX 01 10:36:57
  TRACK 515 AUDIO
    TITLE "0:"
    INDEX 01 10:37:62
  TRACK 516 AUDIO
    TITLE "30:cjc135_2811"
    INDEX 01 10:38:40
  TRACK 517 AUDIO
    TITLE "0:"
    INDEX 01 10:40:41
  TRACK 518 AUDIO
    TITLE "31:cjc135_2812"
    INDEX 01 10:40:64
  TRACK 519 AUDIO
    TITLE "0:"
    INDEX 01 10:42:71
  TRACK 520 AUDIO
    TITLE "32:cjc135_2813"
    INDEX 01 10:43:21
  TRACK 521 AUDIO
    TITLE "0:"
    INDEX 01 10:45:30
  TRACK 522 AUDIO
    TITLE "29:cjc135_2814"
    INDEX 01 10:46:30
  TRACK 523 AUDIO
    TITLE "0:"
    INDEX 01 10:47:35
  TRACK 524 AUDIO
    TITLE "30:cjc135_2815"
    INDEX 01 10:48:13
  TRACK 525 AUDIO
    TITLE "0:"
    INDEX 01 10:49:53
  TRACK 526 AUDIO
    TITLE "31:cjc135_2816"
    INDEX 01 10:50:02
  TRACK 527 AUDIO
    TITLE "0:"
    INDEX 01 10:51:50
  TRACK 528 AUDIO
    TITLE "32:cjc135_2817"
    INDEX 01 10:51:74
  TRACK 529 AUDIO
    TITLE "0:"
    INDEX 01 10:53:47
  TRACK 530 AUDIO
    TITLE "29:cjc135_2818"
    INDEX 01 10:54:47
  TRACK 531 AUDIO
    TITLE "0:"
    INDEX 01 10:55:60
  TRACK 532 AUDIO
    TITLE "30:cjc135_2819"
    INDEX 01 10:56:34
  TRACK 533 AUDIO
    TITLE "0:"
    INDEX 01 10:58:54
  TRACK 534 AUDIO
    TITLE "31:cjc135_2820"
    INDEX 01 10:59:05
  TRACK 535 AUDIO
    TITLE "0:"
    INDEX 01 11:01:35
  TRACK 536 AUDIO
    TITLE "32:cjc135_2821"
    INDEX 01 11:01:57
  TRACK 537 AUDIO
    TITLE "0:"
    INDEX 01 11:04:14
  TRACK 538 AUDIO
    TITLE "29:cjc135_2822"
    INDEX 01 11:05:11
  TRACK 539 AUDIO
    TITLE "0:"
    INDEX 01 11:06:20
  TRACK 540 AUDIO
    TITLE "30:cjc135_2823"
    INDEX 01 11:06:69
  TRACK 541 AUDIO
    TITLE "0:"
    INDEX 01 11:09:68
  TRACK 542 AUDIO
    TITLE "31:cjc135_2824"
    INDEX 01 11:10:16
  TRACK 543 AUDIO
    TITLE "0:"
    INDEX 01 11:12:48
  TRACK 544 AUDIO
    TITLE "32:cjc135_2825"
    INDEX 01 11:12:72
  TRACK 545 AUDIO
    TITLE "0:"
    INDEX 01 11:15:27
  TRACK 546 AUDIO
    TITLE "29:cjc135_2826"
    INDEX 01 11:16:27
  TRACK 547 AUDIO
    TITLE "0:"
    INDEX 01 11:17:26
  TRACK 548 AUDIO
    TITLE "30:cjc135_2827"
    INDEX 01 11:18:00
  TRACK 549 AUDIO
    TITLE "0:"
    INDEX 01 11:20:72
  TRACK 550 AUDIO
    TITLE "31:cjc135_2828"
    INDEX 01 11:21:26
  TRACK 551 AUDIO
    TITLE "0:"
    INDEX 01 11:23:17
  TRACK 552 AUDIO
    TITLE "32:cjc135_2829"
    INDEX 01 11:23:44
  TRACK 553 AUDIO
    TITLE "0:"
    INDEX 01 11:25:35
  TRACK 554 AUDIO
    TITLE "29:cjc135_2830"
    INDEX 01 11:26:35
  TRACK 555 AUDIO
    TITLE "0:"
    INDEX 01 11:27:44
  TRACK 556 AUDIO
    TITLE "30:cjc135_2831"
    INDEX 01 11:28:18
  TRACK 557 AUDIO
    TITLE "0:"
    INDEX 01 11:29:65
  TRACK 558 AUDIO
    TITLE "31:cjc135_2832"
    INDEX 01 11:30:13
  TRACK 559 AUDIO
    TITLE "0:"
    INDEX 01 11:31:54
  TRACK 560 AUDIO
    TITLE "32:cjc135_2833"
    INDEX 01 11:32:02
  TRACK 561 AUDIO
    TITLE "0:"
    INDEX 01 11:33:41
  TRACK 562 AUDIO
    TITLE "29:cjc135_2834"
    INDEX 01 11:34:42
  TRACK 563 AUDIO
    TITLE "0:"
    INDEX 01 11:35:57
  TRACK 564 AUDIO
    TITLE "30:cjc135_2835"
    INDEX 01 11:36:29
  TRACK 565 AUDIO
    TITLE "0:"
    INDEX 01 11:38:62
  TRACK 566 AUDIO
    TITLE "31:cjc135_2836"
    INDEX 01 11:39:14
  TRACK 567 AUDIO
    TITLE "0:"
    INDEX 01 11:41:33
  TRACK 568 AUDIO
    TITLE "32:cjc135_2837"
    INDEX 01 11:41:62
  TRACK 569 AUDIO
    TITLE "0:"
    INDEX 01 11:44:05
  TRACK 570 AUDIO
    TITLE "29:cjc135_2838"
    INDEX 01 11:45:09
  TRACK 571 AUDIO
    TITLE "0:"
    INDEX 01 11:46:12
  TRACK 572 AUDIO
    TITLE "30:cjc135_2839"
    INDEX 01 11:46:63
  TRACK 573 AUDIO
    TITLE "0:"
    INDEX 01 11:49:63
  TRACK 574 AUDIO
    TITLE "31:cjc135_2840"
    INDEX 01 11:50:12
  TRACK 575 AUDIO
    TITLE "0:"
    INDEX 01 11:52:38
  TRACK 576 AUDIO
    TITLE "32:cjc135_2841"
    INDEX 01 11:52:68
  TRACK 577 AUDIO
    TITLE "0:"
    INDEX 01 11:55:21
  TRACK 578 AUDIO
    TITLE "29:cjc135_2842"
    INDEX 01 11:56:22
  TRACK 579 AUDIO
    TITLE "0:"
    INDEX 01 11:57:30
  TRACK 580 AUDIO
    TITLE "30:cjc135_2843"
    INDEX 01 11:58:02
  TRACK 581 AUDIO
    TITLE "0:"
    INDEX 01 12:00:71
  TRACK 582 AUDIO
    TITLE "31:cjc135_2844"
    INDEX 01 12:01:21
  TRACK 583 AUDIO
    TITLE "0:"
    INDEX 01 12:03:65
  TRACK 584 AUDIO
    TITLE "32:cjc135_2845"
    INDEX 01 12:04:14
  TRACK 585 AUDIO
    TITLE "0:"
    INDEX 01 12:06:56
  TRACK 586 AUDIO
    TITLE "29:cjc135_2846"
    INDEX 01 12:07:57
  TRACK 587 AUDIO
    TITLE "0:"
    INDEX 01 12:08:57
  TRACK 588 AUDIO
    TITLE "30:cjc135_2847"
    INDEX 01 12:09:33
  TRACK 589 AUDIO
    TITLE "0:"
    INDEX 01 12:12:51
  TRACK 590 AUDIO
    TITLE "31:cjc135_2848"
    INDEX 01 12:13:05
  TRACK 591 AUDIO
    TITLE "0:"
    INDEX 01 12:15:14
  TRACK 592 AUDIO
    TITLE "32:cjc135_2849"
    INDEX 01 12:15:37
  TRACK 593 AUDIO
    TITLE "0:"
    INDEX 01 12:17:44
  TRACK 594 AUDIO
    TITLE "29:cjc135_2850"
    INDEX 01 12:18:45
  TRACK 595 AUDIO
    TITLE "0:"
    INDEX 01 12:19:51
  TRACK 596 AUDIO
    TITLE "30:cjc135_2851"
    INDEX 01 12:20:25
  TRACK 597 AUDIO
    TITLE "0:"
    INDEX 01 12:21:71
  TRACK 598 AUDIO
    TITLE "31:cjc135_2852"
    INDEX 01 12:22:22
  TRACK 599 AUDIO
    TITLE "0:"
    INDEX 01 12:23:74
  TRACK 600 AUDIO
    TITLE "32:cjc135_2853"
    INDEX 01 12:24:24
  TRACK 601 AUDIO
    TITLE "0:"
    INDEX 01 12:26:02
  TRACK 602 AUDIO
    TITLE "29:cjc135_2854"
    INDEX 01 12:27:01
  TRACK 603 AUDIO
    TITLE "0:"
    INDEX 01 12:28:03
  TRACK 604 AUDIO
    TITLE "30:cjc135_2855"
    INDEX 01 12:28:58
  TRACK 605 AUDIO
    TITLE "0:"
    INDEX 01 12:30:23
  TRACK 606 AUDIO
    TITLE "31:cjc135_2856"
    INDEX 01 12:30:47
  TRACK 607 AUDIO
    TITLE "0:"
    INDEX 01 12:32:06
  TRACK 608 AUDIO
    TITLE "32:cjc135_2857"
    INDEX 01 12:32:30
  TRACK 609 AUDIO
    TITLE "0:"
    INDEX 01 12:33:63
  TRACK 610 AUDIO
    TITLE "29:cjc135_2858"
    INDEX 01 12:34:62
  TRACK 611 AUDIO
    TITLE "0:"
    INDEX 01 12:35:63
  TRACK 612 AUDIO
    TITLE "30:cjc135_2859"
    INDEX 01 12:36:39
  TRACK 613 AUDIO
    TITLE "0:"
    INDEX 01 12:38:03
  TRACK 614 AUDIO
    TITLE "31:cjc135_2860"
    INDEX 01 12:38:29
  TRACK 615 AUDIO
    TITLE "0:"
    INDEX 01 12:39:48
  TRACK 616 AUDIO
    TITLE "32:cjc135_2861"
    INDEX 01 12:40:02
  TRACK 617 AUDIO
    TITLE "0:"
    INDEX 01 12:41:21
  TRACK 618 AUDIO
    TITLE "29:cjc135_2862"
    INDEX 01 12:42:22
  TRACK 619 AUDIO
    TITLE "0:"
    INDEX 01 12:43:39
  TRACK 620 AUDIO
    TITLE "30:cjc135_2863"
    INDEX 01 12:44:12
  TRACK 621 AUDIO
    TITLE "0:"
    INDEX 01 12:46:12
  TRACK 622 AUDIO
    TITLE "31:cjc135_2864"
    INDEX 01 12:46:34
  TRACK 623 AUDIO
    TITLE "0:"
    INDEX 01 12:48:45
  TRACK 624 AUDIO
    TITLE "32:cjc135_2865"
    INDEX 01 12:48:70
  TRACK 625 AUDIO
    TITLE "0:"
    INDEX 01 12:51:06
  TRACK 626 AUDIO
    TITLE "29:cjc135_2866"
    INDEX 01 12:52:05
  TRACK 627 AUDIO
    TITLE "0:"
    INDEX 01 12:53:20
  TRACK 628 AUDIO
    TITLE "30:cjc135_2867"
    INDEX 01 12:53:71
  TRACK 629 AUDIO
    TITLE "0:"
    INDEX 01 12:57:08
  TRACK 630 AUDIO
    TITLE "31:cjc135_2868"
    INDEX 01 12:57:34
  TRACK 631 AUDIO
    TITLE "0:"
    INDEX 01 13:00:09
  TRACK 632 AUDIO
    TITLE "32:cjc135_2869"
    INDEX 01 13:00:32
  TRACK 633 AUDIO
    TITLE "0:"
    INDEX 01 13:03:05
  TRACK 634 AUDIO
    TITLE "29:cjc135_2870"
    INDEX 01 13:04:04
  TRACK 635 AUDIO
    TITLE "0:"
    INDEX 01 13:05:02
  TRACK 636 AUDIO
    TITLE "30:cjc135_2871"
    INDEX 01 13:05:53
  TRACK 637 AUDIO
    TITLE "0:"
    INDEX 01 13:08:53
  TRACK 638 AUDIO
    TITLE "31:cjc135_2872"
    INDEX 01 13:09:06
  TRACK 639 AUDIO
    TITLE "0:"
    INDEX 01 13:11:26
  TRACK 640 AUDIO
    TITLE "32:cjc135_2873"
    INDEX 01 13:11:51
  TRACK 641 AUDIO
    TITLE "0:"
    INDEX 01 13:13:74
  TRACK 642 AUDIO
    TITLE "29:cjc135_2874"
    INDEX 01 13:15:00
  TRACK 643 AUDIO
    TITLE "0:"
    INDEX 01 13:16:02
  TRACK 644 AUDIO
    TITLE "30:cjc135_2875"
    INDEX 01 13:16:53
  TRACK 645 AUDIO
    TITLE "0:"
    INDEX 01 13:19:51
  TRACK 646 AUDIO
    TITLE "31:cjc135_2876"
    INDEX 01 13:20:01
  TRACK 647 AUDIO
    TITLE "0:"
    INDEX 01 13:22:42
  TRACK 648 AUDIO
    TITLE "32:cjc135_2877"
    INDEX 01 13:22:67
  TRACK 649 AUDIO
    TITLE "0:"
    INDEX 01 13:25:32
  TRACK 650 AUDIO
    TITLE "29:cjc135_2878"
    INDEX 01 13:26:33
  TRACK 651 AUDIO
    TITLE "0:"
    INDEX 01 13:27:27
  TRACK 652 AUDIO
    TITLE "30:cjc135_2879"
    INDEX 01 13:28:01
  TRACK 653 AUDIO
    TITLE "0:"
    INDEX 01 13:30:08
  TRACK 654 AUDIO
    TITLE "31:cjc135_2880"
    INDEX 01 13:30:35
  TRACK 655 AUDIO
    TITLE "0:"
    INDEX 01 13:31:68
  TRACK 656 AUDIO
    TITLE "32:cjc135_2881"
    INDEX 01 13:32:20
  TRACK 657 AUDIO
    TITLE "0:"
    INDEX 01 13:33:53
  TRACK 658 AUDIO
    TITLE "29:cjc135_2882"
    INDEX 01 13:34:54
  TRACK 659 AUDIO
    TITLE "0:"
    INDEX 01 13:35:56
  TRACK 660 AUDIO
    TITLE "30:cjc135_2883"
    INDEX 01 13:36:32
  TRACK 661 AUDIO
    TITLE "0:"
    INDEX 01 13:39:20
  TRACK 662 AUDIO
    TITLE "31:cjc135_2884"
    INDEX 01 13:39:44
  TRACK 663 AUDIO
    TITLE "0:"
    INDEX 01 13:41:47
  TRACK 664 AUDIO
    TITLE "32:cjc135_2885"
    INDEX 01 13:41:72
  TRACK 665 AUDIO
    TITLE "0:"
    INDEX 01 13:44:00
  TRACK 666 AUDIO
    TITLE "29:cjc135_2886"
    INDEX 01 13:44:74
  TRACK 667 AUDIO
    TITLE "0:"
    INDEX 01 13:46:09
  TRACK 668 AUDIO
    TITLE "30:cjc135_2887"
    INDEX 01 13:46:60
  TRACK 669 AUDIO
    TITLE "0:"
    INDEX 01 13:49:33
  TRACK 670 AUDIO
    TITLE "31:cjc135_2888"
    INDEX 01 13:49:62
  TRACK 671 AUDIO
    TITLE "0:"
    INDEX 01 13:51:53
  TRACK 672 AUDIO
    TITLE "32:cjc135_2889"
    INDEX 01 13:52:01
  TRACK 673 AUDIO
    TITLE "0:"
    INDEX 01 13:53:66
  TRACK 674 AUDIO
    TITLE "29:cjc135_2890"
    INDEX 01 13:54:69
  TRACK 675 AUDIO
    TITLE "0:"
    INDEX 01 13:55:74
  TRACK 676 AUDIO
    TITLE "30:cjc135_2891"
    INDEX 01 13:56:50
  TRACK 677 AUDIO
    TITLE "0:"
    INDEX 01 13:58:26
  TRACK 678 AUDIO
    TITLE "31:cjc135_2892"
    INDEX 01 13:58:57
  TRACK 679 AUDIO
    TITLE "0:"
    INDEX 01 14:00:54
  TRACK 680 AUDIO
    TITLE "32:cjc135_2893"
    INDEX 01 14:01:02
  TRACK 681 AUDIO
    TITLE "0:"
    INDEX 01 14:02:74
  TRACK 682 AUDIO
    TITLE "29:cjc135_2894"
    INDEX 01 14:03:72
  TRACK 683 AUDIO
    TITLE "0:"
    INDEX 01 14:05:02
  TRACK 684 AUDIO
    TITLE "30:cjc135_2895"
    INDEX 01 14:05:53
  TRACK 685 AUDIO
    TITLE "0:"
    INDEX 01 14:08:38
  TRACK 686 AUDIO
    TITLE "31:cjc135_2896"
    INDEX 01 14:08:61
  TRACK 687 AUDIO
    TITLE "0:"
    INDEX 01 14:11:44
  TRACK 688 AUDIO
    TITLE "32:cjc135_2897"
    INDEX 01 14:11:69
  TRACK 689 AUDIO
    TITLE "0:"
    INDEX 01 14:14:54
  TRACK 690 AUDIO
    TITLE "29:cjc135_2898"
    INDEX 01 14:15:51
  TRACK 691 AUDIO
    TITLE "0:"
    INDEX 01 14:16:53
  TRACK 692 AUDIO
    TITLE "30:cjc135_2899"
    INDEX 01 14:17:27
  TRACK 693 AUDIO
    TITLE "0:"
    INDEX 01 14:20:15
  TRACK 694 AUDIO
    TITLE "31:cjc135_2900"
    INDEX 01 14:20:39
  TRACK 695 AUDIO
    TITLE "0:"
    INDEX 01 14:22:54
  TRACK 696 AUDIO
    TITLE "32:cjc135_2901"
    INDEX 01 14:23:04
  TRACK 697 AUDIO
    TITLE "0:"
    INDEX 01 14:25:21
  TRACK 698 AUDIO
    TITLE "29:cjc135_2902"
    INDEX 01 14:26:20
  TRACK 699 AUDIO
    TITLE "0:"
    INDEX 01 14:27:29
  TRACK 700 AUDIO
    TITLE "30:cjc135_2903"
    INDEX 01 14:28:05
  TRACK 701 AUDIO
    TITLE "0:"
    INDEX 01 14:29:50
  TRACK 702 AUDIO
    TITLE "31:cjc135_2904"
    INDEX 01 14:30:02
  TRACK 703 AUDIO
    TITLE "0:"
    INDEX 01 14:31:62
  TRACK 704 AUDIO
    TITLE "32:cjc135_2905"
    INDEX 01 14:32:13
  TRACK 705 AUDIO
    TITLE "0:"
    INDEX 01 14:33:71
  TRACK 706 AUDIO
    TITLE "29:cjc135_2906"
    INDEX 01 14:34:72
  TRACK 707 AUDIO
    TITLE "0:"
    INDEX 01 14:35:74
  TRACK 708 AUDIO
    TITLE "30:cjc135_2907"
    INDEX 01 14:36:44
  TRACK 709 AUDIO
    TITLE "0:"
    INDEX 01 14:38:66
  TRACK 710 AUDIO
    TITLE "31:cjc135_2908"
    INDEX 01 14:39:17
  TRACK 711 AUDIO
    TITLE "0:"
    INDEX 01 14:41:12
  TRACK 712 AUDIO
    TITLE "32:cjc135_2909"
    INDEX 01 14:41:39
  TRACK 713 AUDIO
    TITLE "0:"
    INDEX 01 14:43:32
  TRACK 714 AUDIO
    TITLE "29:cjc135_2910"
    INDEX 01 14:44:36
  TRACK 715 AUDIO
    TITLE "0:"
    INDEX 01 14:45:41
  TRACK 716 AUDIO
    TITLE "30:cjc135_2911"
    INDEX 01 14:46:17
  TRACK 717 AUDIO
    TITLE "0:"
    INDEX 01 14:48:47
  TRACK 718 AUDIO
    TITLE "31:cjc135_2912"
    INDEX 01 14:48:72
  TRACK 719 AUDIO
    TITLE "0:"
    INDEX 01 14:51:71
  TRACK 720 AUDIO
    TITLE "32:cjc135_2913"
    INDEX 01 14:52:21
  TRACK 721 AUDIO
    TITLE "0:"
    INDEX 01 14:55:20
  TRACK 722 AUDIO
    TITLE "29:cjc135_2914"
    INDEX 01 14:56:23
  TRACK 723 AUDIO
    TITLE "0:"
    INDEX 01 14:57:21
  TRACK 724 AUDIO
    TITLE "30:cjc135_2915"
    INDEX 01 14:57:69
  TRACK 725 AUDIO
    TITLE "0:"
    INDEX 01 14:59:45
  TRACK 726 AUDIO
    TITLE "31:cjc135_2916"
    INDEX 01 14:59:70
  TRACK 727 AUDIO
    TITLE "0:"
    INDEX 01 15:01:26
  TRACK 728 AUDIO
    TITLE "32:cjc135_2917"
    INDEX 01 15:01:52
  TRACK 729 AUDIO
    TITLE "0:"
    INDEX 01 15:03:09
  TRACK 730 AUDIO
    TITLE "29:cjc135_2918"
    INDEX 01 15:04:09
  TRACK 731 AUDIO
    TITLE "0:"
    INDEX 01 15:05:32
  TRACK 732 AUDIO
    TITLE "30:cjc135_2919"
    INDEX 01 15:06:06
  TRACK 733 AUDIO
    TITLE "0:"
    INDEX 01 15:08:42
  TRACK 734 AUDIO
    TITLE "31:cjc135_2920"
    INDEX 01 15:08:67
  TRACK 735 AUDIO
    TITLE "0:"
    INDEX 01 15:10:74
  TRACK 736 AUDIO
    TITLE "32:cjc135_2921"
    INDEX 01 15:11:25
  TRACK 737 AUDIO
    TITLE "0:"
    INDEX 01 15:13:33
  TRACK 738 AUDIO
    TITLE "29:cjc135_2922"
    INDEX 01 15:14:33
  TRACK 739 AUDIO
    TITLE "0:"
    INDEX 01 15:15:38
  TRACK 740 AUDIO
    TITLE "30:cjc135_2923"
    INDEX 01 15:16:14
  TRACK 741 AUDIO
    TITLE "0:"
    INDEX 01 15:17:62
  TRACK 742 AUDIO
    TITLE "31:cjc135_2924"
    INDEX 01 15:18:13
  TRACK 743 AUDIO
    TITLE "0:"
    INDEX 01 15:20:02
  TRACK 744 AUDIO
    TITLE "32:cjc135_2925"
    INDEX 01 15:20:27
  TRACK 745 AUDIO
    TITLE "0:"
    INDEX 01 15:22:18
  TRACK 746 AUDIO
    TITLE "29:cjc135_2926"
    INDEX 01 15:23:18
  TRACK 747 AUDIO
    TITLE "0:"
    INDEX 01 15:24:15
  TRACK 748 AUDIO
    TITLE "30:cjc135_2927"
    INDEX 01 15:24:64
  TRACK 749 AUDIO
    TITLE "0:"
    INDEX 01 15:27:53
  TRACK 750 AUDIO
    TITLE "31:cjc135_2928"
    INDEX 01 15:28:07
  TRACK 751 AUDIO
    TITLE "0:"
    INDEX 01 15:30:00
  TRACK 752 AUDIO
    TITLE "32:cjc135_2929"
    INDEX 01 15:30:28
  TRACK 753 AUDIO
    TITLE "0:"
    INDEX 01 15:32:21
  TRACK 754 AUDIO
    TITLE "29:cjc135_2930"
    INDEX 01 15:33:22
  TRACK 755 AUDIO
    TITLE "0:"
    INDEX 01 15:34:26
  TRACK 756 AUDIO
    TITLE "30:cjc135_2931"
    INDEX 01 15:35:00
  TRACK 757 AUDIO
    TITLE "0:"
    INDEX 01 15:37:18
  TRACK 758 AUDIO
    TITLE "31:cjc135_2932"
    INDEX 01 15:37:42
  TRACK 759 AUDIO
    TITLE "0:"
    INDEX 01 15:39:39
  TRACK 760 AUDIO
    TITLE "32:cjc135_2933"
    INDEX 01 15:39:68
  TRACK 761 AUDIO
    TITLE "0:"
    INDEX 01 15:41:69
  TRACK 762 AUDIO
    TITLE "29:cjc135_2934"
    INDEX 01 15:42:66
  TRACK 763 AUDIO
    TITLE "0:"
    INDEX 01 15:43:72
  TRACK 764 AUDIO
    TITLE "30:cjc135_2935"
    INDEX 01 15:44:46
  TRACK 765 AUDIO
    TITLE "0:"
    INDEX 01 15:47:38
  TRACK 766 AUDIO
    TITLE "31:cjc135_2936"
    INDEX 01 15:47:67
  TRACK 767 AUDIO
    TITLE "0:"
    INDEX 01 15:51:08
  TRACK 768 AUDIO
    TITLE "32:cjc135_2937"
    INDEX 01 15:51:32
  TRACK 769 AUDIO
    TITLE "0:"
    INDEX 01 15:54:50
  TRACK 770 AUDIO
    TITLE "29:cjc135_2938"
    INDEX 01 15:55:47
  TRACK 771 AUDIO
    TITLE "0:"
    INDEX 01 15:56:45
  TRACK 772 AUDIO
    TITLE "30:cjc135_2939"
    INDEX 01 15:57:19
  TRACK 773 AUDIO
    TITLE "0:"
    INDEX 01 15:59:33
  TRACK 774 AUDIO
    TITLE "31:cjc135_2940"
    INDEX 01 15:59:57
  TRACK 775 AUDIO
    TITLE "0:"
    INDEX 01 16:01:38
  TRACK 776 AUDIO
    TITLE "32:cjc135_2941"
    INDEX 01 16:01:62
  TRACK 777 AUDIO
    TITLE "0:"
    INDEX 01 16:03:41
  TRACK 778 AUDIO
    TITLE "29:cjc135_2942"
    INDEX 01 16:04:42
  TRACK 779 AUDIO
    TITLE "0:"
    INDEX 01 16:05:54
  TRACK 780 AUDIO
    TITLE "30:cjc135_2943"
    INDEX 01 16:06:30
  TRACK 781 AUDIO
    TITLE "0:"
    INDEX 01 16:09:02
  TRACK 782 AUDIO
    TITLE "31:cjc135_2944"
    INDEX 01 16:09:30
  TRACK 783 AUDIO
    TITLE "0:"
    INDEX 01 16:11:48
  TRACK 784 AUDIO
    TITLE "32:cjc135_2945"
    INDEX 01 16:11:72
  TRACK 785 AUDIO
    TITLE "0:"
    INDEX 01 16:14:17
  TRACK 786 AUDIO
    TITLE "29:cjc135_2946"
    INDEX 01 16:15:17
  TRACK 787 AUDIO
    TITLE "0:"
    INDEX 01 16:16:08
  TRACK 788 AUDIO
    TITLE "30:cjc135_2947"
    INDEX 01 16:16:59
  TRACK 789 AUDIO
    TITLE "0:"
    INDEX 01 16:19:05
  TRACK 790 AUDIO
    TITLE "31:cjc135_2948"
    INDEX 01 16:19:30
  TRACK 791 AUDIO
    TITLE "0:"
    INDEX 01 16:21:00
  TRACK 792 AUDIO
    TITLE "32:cjc135_2949"
    INDEX 01 16:21:25
  TRACK 793 AUDIO
    TITLE "0:"
    INDEX 01 16:22:68
  TRACK 794 AUDIO
    TITLE "29:cjc135_2950"
    INDEX 01 16:23:69
  TRACK 795 AUDIO
    TITLE "0:"
    INDEX 01 16:25:03
  TRACK 796 AUDIO
    TITLE "30:cjc135_2951"
    INDEX 01 16:25:52
  TRACK 797 AUDIO
    TITLE "0:"
    INDEX 01 16:28:12
  TRACK 798 AUDIO
    TITLE "31:cjc135_2952"
    INDEX 01 16:28:35
  TRACK 799 AUDIO
    TITLE "0:"
    INDEX 01 16:30:44
  TRACK 800 AUDIO
    TITLE "32:cjc135_2953"
    INDEX 01 16:30:67
  TRACK 801 AUDIO
    TITLE "0:"
    INDEX 01 16:32:74
